<svg width="70" height="70" viewBox="0 0 70 70" fill="none" xmlns="http://www.w3.org/2000/svg">
<rect width="70" height="70" rx="35" fill="#9BC6FD"/>
<path d="M35 15.75V54.25" stroke="black" stroke-width="2" stroke-linecap="round" stroke-linejoin="round"/>
<path d="M43.75 22.75H30.625C29.0005 22.75 27.4426 23.3953 26.294 24.544C25.1453 25.6926 24.5 27.2505 24.5 28.875C24.5 30.4995 25.1453 32.0574 26.294 33.206C27.4426 34.3547 29.0005 35 30.625 35H39.375C40.9995 35 42.5574 35.6453 43.706 36.794C44.8547 37.9426 45.5 39.5005 45.5 41.125C45.5 42.7495 44.8547 44.3074 43.706 45.456C42.5574 46.6047 40.9995 47.25 39.375 47.25H24.5" stroke="black" stroke-width="2" stroke-linecap="round" stroke-linejoin="round"/>
</svg>
