<svg width="360" height="435" viewBox="0 0 360 435" fill="none" xmlns="http://www.w3.org/2000/svg">
<g opacity="0.4" clip-path="url(#clip0_489_10581)">
<path d="M360 -1.05965e-05L360 413.35C360 413.35 343.301 405.906 312.815 413.19C282.329 420.473 266.861 416.446 224.388 403.816C181.915 391.186 161.86 415.373 100.98 405.836C40.0993 396.299 48.26 427.451 0.000383813 413C-0.00995408 395.467 0.00835709 13.5625 0.000359623 9.82665e-06C37.1967 0.0107484 360 -1.05965e-05 360 -1.05965e-05Z" fill="#9BC6FD"/>
</g>
<g clip-path="url(#clip1_489_10581)">
<g opacity="0.4" filter="url(#filter0_d_489_10581)">
<rect x="55.7198" y="156.084" width="757.268" height="422.601" rx="54.4825" transform="rotate(-45 55.7198 156.084)" fill="#D7E8FE"/>
</g>
</g>
<g clip-path="url(#clip2_489_10581)">
<path d="M344.324 78.3998C346.851 78.3998 348.899 76.3515 348.899 73.8248C348.899 71.2982 346.851 69.2499 344.324 69.2499C341.797 69.2499 339.749 71.2982 339.749 73.8248C339.749 76.3515 341.797 78.3998 344.324 78.3998Z" fill="#0570FA"/>
<path d="M359.574 63.1499C362.1 63.1499 364.149 61.1016 364.149 58.575C364.149 56.0483 362.1 54 359.574 54C357.047 54 354.999 56.0483 354.999 58.575C354.999 61.1016 357.047 63.1499 359.574 63.1499Z" fill="#0570FA"/>
<path d="M313.824 108.899C316.351 108.899 318.399 106.851 318.399 104.324C318.399 101.798 316.351 99.7495 313.824 99.7495C311.298 99.7495 309.249 101.798 309.249 104.324C309.249 106.851 311.298 108.899 313.824 108.899Z" fill="#0570FA"/>
<path d="M329.074 93.6495C331.601 93.6495 333.649 91.6013 333.649 89.0746C333.649 86.5479 331.601 84.4996 329.074 84.4996C326.547 84.4996 324.499 86.5479 324.499 89.0746C324.499 91.6013 326.547 93.6495 329.074 93.6495Z" fill="#0570FA"/>
<path d="M344.324 108.899C346.851 108.899 348.899 106.851 348.899 104.324C348.899 101.798 346.851 99.7495 344.324 99.7495C341.797 99.7495 339.749 101.798 339.749 104.324C339.749 106.851 341.797 108.899 344.324 108.899Z" fill="#0570FA"/>
<path d="M359.574 93.6495C362.1 93.6495 364.149 91.6013 364.149 89.0746C364.149 86.5479 362.1 84.4996 359.574 84.4996C357.047 84.4996 354.999 86.5479 354.999 89.0746C354.999 91.6013 357.047 93.6495 359.574 93.6495Z" fill="#0570FA"/>
<path d="M283.324 139.399C285.851 139.399 287.899 137.351 287.899 134.824C287.899 132.298 285.851 130.249 283.324 130.249C280.798 130.249 278.75 132.298 278.75 134.824C278.75 137.351 280.798 139.399 283.324 139.399Z" fill="#0570FA"/>
<path d="M298.574 124.149C301.101 124.149 303.149 122.101 303.149 119.574C303.149 117.048 301.101 114.999 298.574 114.999C296.048 114.999 293.999 117.048 293.999 119.574C293.999 122.101 296.048 124.149 298.574 124.149Z" fill="#0570FA"/>
<path d="M313.824 139.399C316.351 139.399 318.399 137.351 318.399 134.824C318.399 132.298 316.351 130.249 313.824 130.249C311.298 130.249 309.249 132.298 309.249 134.824C309.249 137.351 311.298 139.399 313.824 139.399Z" fill="#0570FA"/>
<path d="M329.074 124.149C331.601 124.149 333.649 122.101 333.649 119.574C333.649 117.048 331.601 114.999 329.074 114.999C326.547 114.999 324.499 117.048 324.499 119.574C324.499 122.101 326.547 124.149 329.074 124.149Z" fill="#0570FA"/>
<path d="M344.324 139.399C346.851 139.399 348.899 137.351 348.899 134.824C348.899 132.298 346.851 130.249 344.324 130.249C341.797 130.249 339.749 132.298 339.749 134.824C339.749 137.351 341.797 139.399 344.324 139.399Z" fill="#0570FA"/>
<path d="M359.574 124.149C362.1 124.149 364.149 122.101 364.149 119.574C364.149 117.048 362.1 114.999 359.574 114.999C357.047 114.999 354.999 117.048 354.999 119.574C354.999 122.101 357.047 124.149 359.574 124.149Z" fill="#0570FA"/>
<path d="M298.574 154.649C301.101 154.649 303.149 152.601 303.149 150.074C303.149 147.547 301.101 145.499 298.574 145.499C296.048 145.499 293.999 147.547 293.999 150.074C293.999 152.601 296.048 154.649 298.574 154.649Z" fill="#0570FA"/>
<path d="M313.824 169.899C316.351 169.899 318.399 167.851 318.399 165.324C318.399 162.797 316.351 160.749 313.824 160.749C311.298 160.749 309.249 162.797 309.249 165.324C309.249 167.851 311.298 169.899 313.824 169.899Z" fill="#0570FA"/>
<path d="M329.074 154.649C331.601 154.649 333.649 152.601 333.649 150.074C333.649 147.547 331.601 145.499 329.074 145.499C326.547 145.499 324.499 147.547 324.499 150.074C324.499 152.601 326.547 154.649 329.074 154.649Z" fill="#0570FA"/>
<path d="M344.324 169.899C346.851 169.899 348.899 167.851 348.899 165.324C348.899 162.797 346.851 160.749 344.324 160.749C341.797 160.749 339.749 162.797 339.749 165.324C339.749 167.851 341.797 169.899 344.324 169.899Z" fill="#0570FA"/>
<path d="M359.574 154.649C362.1 154.649 364.149 152.601 364.149 150.074C364.149 147.547 362.1 145.499 359.574 145.499C357.047 145.499 354.999 147.547 354.999 150.074C354.999 152.601 357.047 154.649 359.574 154.649Z" fill="#0570FA"/>
<path d="M329.074 185.149C331.601 185.149 333.649 183.1 333.649 180.574C333.649 178.047 331.601 175.999 329.074 175.999C326.547 175.999 324.499 178.047 324.499 180.574C324.499 183.1 326.547 185.149 329.074 185.149Z" fill="#0570FA"/>
<path d="M344.324 200.398C346.851 200.398 348.899 198.35 348.899 195.823C348.899 193.297 346.851 191.249 344.324 191.249C341.797 191.249 339.749 193.297 339.749 195.823C339.749 198.35 341.797 200.398 344.324 200.398Z" fill="#0570FA"/>
<path d="M359.574 185.149C362.1 185.149 364.149 183.1 364.149 180.574C364.149 178.047 362.1 175.999 359.574 175.999C357.047 175.999 354.999 178.047 354.999 180.574C354.999 183.1 357.047 185.149 359.574 185.149Z" fill="#0570FA"/>
<path d="M359.574 215.648C362.1 215.648 364.149 213.6 364.149 211.073C364.149 208.547 362.1 206.498 359.574 206.498C357.047 206.498 354.999 208.547 354.999 211.073C354.999 213.6 357.047 215.648 359.574 215.648Z" fill="#0570FA"/>
</g>
<defs>
<filter id="filter0_d_489_10581" x="-9.95225" y="-407.241" width="890.004" height="890.004" filterUnits="userSpaceOnUse" color-interpolation-filters="sRGB">
<feFlood flood-opacity="0" result="BackgroundImageFix"/>
<feColorMatrix in="SourceAlpha" type="matrix" values="0 0 0 0 0 0 0 0 0 0 0 0 0 0 0 0 0 0 127 0" result="hardAlpha"/>
<feOffset dx="-37.8165"/>
<feGaussianBlur stdDeviation="25.2115"/>
<feColorMatrix type="matrix" values="0 0 0 0 0 0 0 0 0 0 0 0 0 0 0 0 0 0 0.16 0"/>
<feBlend mode="normal" in2="BackgroundImageFix" result="effect1_dropShadow_489_10581"/>
<feBlend mode="normal" in="SourceGraphic" in2="effect1_dropShadow_489_10581" result="shape"/>
</filter>
<clipPath id="clip0_489_10581">
<rect width="360" height="420" fill="white"/>
</clipPath>
<clipPath id="clip1_489_10581">
<rect width="783.667" height="578.247" fill="white" transform="translate(-313 -144)"/>
</clipPath>
<clipPath id="clip2_489_10581">
<rect width="143" height="195" fill="white" transform="translate(233 54)"/>
</clipPath>
</defs>
</svg>
