<svg width="999" height="100" viewBox="0 0 999 100" fill="none" xmlns="http://www.w3.org/2000/svg">
<g filter="url(#filter0_d_0_1570)">
<path d="M0.830966 5.18182H21.7287L39.456 48.4091H40.2741L58.0014 5.18182H78.8992V75H62.4673V32.1136H61.8878L45.1151 74.5568H34.6151L17.8423 31.875H17.2628V75H0.830966V5.18182ZM110.868 75.9886C105.368 75.9886 100.641 74.8636 96.6861 72.6136C92.7543 70.3409 89.7202 67.1818 87.5838 63.1364C85.4702 59.0682 84.4134 54.3523 84.4134 48.9886C84.4134 43.6023 85.4702 38.8864 87.5838 34.8409C89.7202 30.7727 92.7543 27.6136 96.6861 25.3636C100.641 23.0909 105.368 21.9545 110.868 21.9545C116.368 21.9545 121.084 23.0909 125.016 25.3636C128.97 27.6136 132.004 30.7727 134.118 34.8409C136.254 38.8864 137.322 43.6023 137.322 48.9886C137.322 54.3523 136.254 59.0682 134.118 63.1364C132.004 67.1818 128.97 70.3409 125.016 72.6136C121.084 74.8636 116.368 75.9886 110.868 75.9886ZM110.97 63.4091C112.97 63.4091 114.663 62.7955 116.05 61.5682C117.436 60.3409 118.493 58.6364 119.22 56.4545C119.97 54.2727 120.345 51.75 120.345 48.8864C120.345 45.9773 119.97 43.4318 119.22 41.25C118.493 39.0682 117.436 37.3636 116.05 36.1364C114.663 34.9091 112.97 34.2955 110.97 34.2955C108.902 34.2955 107.152 34.9091 105.72 36.1364C104.311 37.3636 103.232 39.0682 102.482 41.25C101.754 43.4318 101.391 45.9773 101.391 48.8864C101.391 51.75 101.754 54.2727 102.482 56.4545C103.232 58.6364 104.311 60.3409 105.72 61.5682C107.152 62.7955 108.902 63.4091 110.97 63.4091ZM191.97 22.6364L174.004 75H154.913L136.982 22.6364H154.538L164.186 58.7045H164.732L174.413 22.6364H191.97ZM195.362 75V22.6364H212.033V75H195.362ZM203.714 16.5341C201.374 16.5341 199.362 15.7614 197.68 14.2159C195.999 12.6477 195.158 10.7614 195.158 8.55682C195.158 6.375 195.999 4.51136 197.68 2.96591C199.362 1.39772 201.374 0.613632 203.714 0.613632C206.078 0.613632 208.089 1.39772 209.749 2.96591C211.43 4.51136 212.271 6.375 212.271 8.55682C212.271 10.7614 211.43 12.6477 209.749 14.2159C208.089 15.7614 206.078 16.5341 203.714 16.5341ZM236.314 45.1364V75H219.643V22.6364H235.496V32.25H236.075C237.234 29.0455 239.212 26.5341 242.007 24.7159C244.803 22.875 248.132 21.9545 251.996 21.9545C255.678 21.9545 258.871 22.7841 261.575 24.4432C264.303 26.0795 266.416 28.375 267.916 31.3295C269.439 34.2614 270.189 37.6932 270.166 41.625V75H253.496V44.8977C253.518 41.9886 252.78 39.7159 251.28 38.0795C249.803 36.4432 247.746 35.625 245.109 35.625C243.359 35.625 241.814 36.0114 240.473 36.7841C239.155 37.5341 238.132 38.6136 237.405 40.0227C236.7 41.4318 236.337 43.1364 236.314 45.1364ZM301.896 95.7273C296.919 95.7273 292.658 95.0341 289.112 93.6477C285.567 92.2614 282.783 90.3636 280.76 87.9545C278.737 85.5455 277.521 82.8182 277.112 79.7727L292.896 78.8864C293.192 79.9545 293.737 80.8864 294.533 81.6818C295.351 82.4773 296.408 83.0909 297.703 83.5227C299.021 83.9545 300.567 84.1705 302.339 84.1705C305.135 84.1705 307.442 83.4886 309.26 82.125C311.101 80.7841 312.021 78.4318 312.021 75.0682V65.8636H311.442C310.783 67.4773 309.783 68.9205 308.442 70.1932C307.101 71.4659 305.43 72.4659 303.43 73.1932C301.453 73.9205 299.18 74.2841 296.612 74.2841C292.794 74.2841 289.294 73.3977 286.112 71.625C282.953 69.8295 280.419 67.0568 278.51 63.3068C276.624 59.5341 275.68 54.6818 275.68 48.75C275.68 42.6364 276.658 37.6023 278.612 33.6477C280.567 29.6705 283.124 26.7273 286.283 24.8182C289.464 22.9091 292.885 21.9545 296.544 21.9545C299.294 21.9545 301.646 22.4318 303.601 23.3864C305.578 24.3182 307.203 25.5227 308.476 27C309.749 28.4773 310.714 30.0114 311.374 31.6023H311.851V22.6364H328.453V75.2045C328.453 79.6364 327.339 83.375 325.112 86.4205C322.885 89.4659 319.771 91.7727 315.771 93.3409C311.771 94.9318 307.146 95.7273 301.896 95.7273ZM302.408 62.1477C304.43 62.1477 306.158 61.6136 307.589 60.5455C309.021 59.4773 310.124 57.9432 310.896 55.9432C311.669 53.9432 312.055 51.5455 312.055 48.75C312.055 45.9091 311.669 43.4659 310.896 41.4205C310.146 39.3523 309.044 37.7614 307.589 36.6477C306.158 35.5341 304.43 34.9773 302.408 34.9773C300.339 34.9773 298.589 35.5455 297.158 36.6818C295.726 37.8182 294.635 39.4205 293.885 41.4886C293.158 43.5341 292.794 45.9545 292.794 48.75C292.794 51.5455 293.169 53.9432 293.919 55.9432C294.669 57.9432 295.749 59.4773 297.158 60.5455C298.589 61.6136 300.339 62.1477 302.408 62.1477ZM353.706 75V5.18182H382.547C387.774 5.18182 392.286 6.20454 396.081 8.25C399.899 10.2727 402.842 13.1023 404.911 16.7386C406.979 20.3523 408.013 24.5568 408.013 29.3523C408.013 34.1705 406.956 38.3864 404.842 42C402.751 45.5909 399.763 48.375 395.876 50.3523C391.99 52.3295 387.376 53.3182 382.036 53.3182H364.24V40.0227H378.899C381.445 40.0227 383.57 39.5795 385.274 38.6932C387.001 37.8068 388.308 36.5682 389.195 34.9773C390.081 33.3636 390.524 31.4886 390.524 29.3523C390.524 27.1932 390.081 25.3295 389.195 23.7614C388.308 22.1705 387.001 20.9432 385.274 20.0795C383.547 19.2159 381.422 18.7841 378.899 18.7841H370.581V75H353.706ZM426.217 75.8864C422.876 75.8864 419.911 75.3295 417.32 74.2159C414.751 73.0795 412.717 71.375 411.217 69.1023C409.74 66.8068 409.001 63.9318 409.001 60.4773C409.001 57.5682 409.513 55.1136 410.536 53.1136C411.558 51.1136 412.967 49.4886 414.763 48.2386C416.558 46.9886 418.626 46.0455 420.967 45.4091C423.308 44.75 425.808 44.3068 428.467 44.0795C431.445 43.8068 433.842 43.5227 435.661 43.2273C437.479 42.9091 438.797 42.4659 439.615 41.8977C440.456 41.3068 440.876 40.4773 440.876 39.4091V39.2386C440.876 37.4886 440.274 36.1364 439.07 35.1818C437.865 34.2273 436.24 33.75 434.195 33.75C431.99 33.75 430.217 34.2273 428.876 35.1818C427.536 36.1364 426.683 37.4545 426.32 39.1364L410.945 38.5909C411.399 35.4091 412.57 32.5682 414.456 30.0682C416.365 27.5455 418.979 25.5682 422.297 24.1364C425.638 22.6818 429.649 21.9545 434.331 21.9545C437.672 21.9545 440.751 22.3523 443.57 23.1477C446.388 23.9205 448.842 25.0568 450.933 26.5568C453.024 28.0341 454.638 29.8523 455.774 32.0114C456.933 34.1705 457.513 36.6364 457.513 39.4091V75H441.831V67.7045H441.422C440.49 69.4773 439.297 70.9773 437.842 72.2045C436.411 73.4318 434.717 74.3523 432.763 74.9659C430.831 75.5795 428.649 75.8864 426.217 75.8864ZM431.365 64.9773C433.161 64.9773 434.774 64.6136 436.206 63.8864C437.661 63.1591 438.82 62.1591 439.683 60.8864C440.547 59.5909 440.979 58.0909 440.979 56.3864V51.4091C440.501 51.6591 439.922 51.8864 439.24 52.0909C438.581 52.2955 437.854 52.4886 437.058 52.6705C436.263 52.8523 435.445 53.0114 434.604 53.1477C433.763 53.2841 432.956 53.4091 432.183 53.5227C430.615 53.7727 429.274 54.1591 428.161 54.6818C427.07 55.2045 426.229 55.8864 425.638 56.7273C425.07 57.5455 424.786 58.5227 424.786 59.6591C424.786 61.3864 425.399 62.7045 426.626 63.6136C427.876 64.5227 429.456 64.9773 431.365 64.9773ZM510.422 38.625L495.115 39.0341C494.956 37.9432 494.524 36.9773 493.82 36.1364C493.115 35.2727 492.195 34.6023 491.058 34.125C489.945 33.625 488.649 33.375 487.172 33.375C485.24 33.375 483.592 33.7614 482.229 34.5341C480.888 35.3068 480.229 36.3523 480.251 37.6705C480.229 38.6932 480.638 39.5795 481.479 40.3295C482.342 41.0795 483.876 41.6818 486.081 42.1364L496.172 44.0455C501.399 45.0455 505.286 46.7045 507.831 49.0227C510.399 51.3409 511.695 54.4091 511.717 58.2273C511.695 61.8182 510.626 64.9432 508.513 67.6023C506.422 70.2614 503.558 72.3295 499.922 73.8068C496.286 75.2614 492.126 75.9886 487.445 75.9886C479.967 75.9886 474.07 74.4545 469.751 71.3864C465.456 68.2955 463.001 64.1591 462.388 58.9773L478.854 58.5682C479.217 60.4773 480.161 61.9318 481.683 62.9318C483.206 63.9318 485.149 64.4318 487.513 64.4318C489.649 64.4318 491.388 64.0341 492.729 63.2386C494.07 62.4432 494.751 61.3864 494.774 60.0682C494.751 58.8864 494.229 57.9432 493.206 57.2386C492.183 56.5114 490.581 55.9432 488.399 55.5341L479.263 53.7955C474.013 52.8409 470.104 51.0795 467.536 48.5114C464.967 45.9205 463.695 42.625 463.717 38.625C463.695 35.125 464.626 32.1364 466.513 29.6591C468.399 27.1591 471.081 25.25 474.558 23.9318C478.036 22.6136 482.138 21.9545 486.865 21.9545C493.956 21.9545 499.547 23.4432 503.638 26.4205C507.729 29.375 509.99 33.4432 510.422 38.625ZM562.641 38.625L547.334 39.0341C547.175 37.9432 546.743 36.9773 546.038 36.1364C545.334 35.2727 544.413 34.6023 543.277 34.125C542.163 33.625 540.868 33.375 539.391 33.375C537.459 33.375 535.811 33.7614 534.447 34.5341C533.107 35.3068 532.447 36.3523 532.47 37.6705C532.447 38.6932 532.857 39.5795 533.697 40.3295C534.561 41.0795 536.095 41.6818 538.3 42.1364L548.391 44.0455C553.618 45.0455 557.504 46.7045 560.05 49.0227C562.618 51.3409 563.913 54.4091 563.936 58.2273C563.913 61.8182 562.845 64.9432 560.732 67.6023C558.641 70.2614 555.777 72.3295 552.141 73.8068C548.504 75.2614 544.345 75.9886 539.663 75.9886C532.186 75.9886 526.288 74.4545 521.97 71.3864C517.675 68.2955 515.22 64.1591 514.607 58.9773L531.072 58.5682C531.436 60.4773 532.379 61.9318 533.902 62.9318C535.425 63.9318 537.368 64.4318 539.732 64.4318C541.868 64.4318 543.607 64.0341 544.947 63.2386C546.288 62.4432 546.97 61.3864 546.993 60.0682C546.97 58.8864 546.447 57.9432 545.425 57.2386C544.402 56.5114 542.8 55.9432 540.618 55.5341L531.482 53.7955C526.232 52.8409 522.322 51.0795 519.754 48.5114C517.186 45.9205 515.913 42.625 515.936 38.625C515.913 35.125 516.845 32.1364 518.732 29.6591C520.618 27.1591 523.3 25.25 526.777 23.9318C530.254 22.6136 534.357 21.9545 539.084 21.9545C546.175 21.9545 551.766 23.4432 555.857 26.4205C559.947 29.375 562.209 33.4432 562.641 38.625ZM569.143 75V22.6364H585.814V75H569.143ZM577.496 16.5341C575.155 16.5341 573.143 15.7614 571.462 14.2159C569.78 12.6477 568.939 10.7614 568.939 8.55682C568.939 6.375 569.78 4.51136 571.462 2.96591C573.143 1.39772 575.155 0.613632 577.496 0.613632C579.859 0.613632 581.871 1.39772 583.53 2.96591C585.212 4.51136 586.053 6.375 586.053 8.55682C586.053 10.7614 585.212 12.6477 583.53 14.2159C581.871 15.7614 579.859 16.5341 577.496 16.5341ZM617.868 75.9886C612.368 75.9886 607.641 74.8636 603.686 72.6136C599.754 70.3409 596.72 67.1818 594.584 63.1364C592.47 59.0682 591.413 54.3523 591.413 48.9886C591.413 43.6023 592.47 38.8864 594.584 34.8409C596.72 30.7727 599.754 27.6136 603.686 25.3636C607.641 23.0909 612.368 21.9545 617.868 21.9545C623.368 21.9545 628.084 23.0909 632.016 25.3636C635.97 27.6136 639.004 30.7727 641.118 34.8409C643.254 38.8864 644.322 43.6023 644.322 48.9886C644.322 54.3523 643.254 59.0682 641.118 63.1364C639.004 67.1818 635.97 70.3409 632.016 72.6136C628.084 74.8636 623.368 75.9886 617.868 75.9886ZM617.97 63.4091C619.97 63.4091 621.663 62.7955 623.05 61.5682C624.436 60.3409 625.493 58.6364 626.22 56.4545C626.97 54.2727 627.345 51.75 627.345 48.8864C627.345 45.9773 626.97 43.4318 626.22 41.25C625.493 39.0682 624.436 37.3636 623.05 36.1364C621.663 34.9091 619.97 34.2955 617.97 34.2955C615.902 34.2955 614.152 34.9091 612.72 36.1364C611.311 37.3636 610.232 39.0682 609.482 41.25C608.754 43.4318 608.391 45.9773 608.391 48.8864C608.391 51.75 608.754 54.2727 609.482 56.4545C610.232 58.6364 611.311 60.3409 612.72 61.5682C614.152 62.7955 615.902 63.4091 617.97 63.4091ZM666.533 45.1364V75H649.862V22.6364H665.714V32.25H666.294C667.453 29.0455 669.43 26.5341 672.226 24.7159C675.021 22.875 678.351 21.9545 682.214 21.9545C685.896 21.9545 689.089 22.7841 691.794 24.4432C694.521 26.0795 696.635 28.375 698.135 31.3295C699.658 34.2614 700.408 37.6932 700.385 41.625V75H683.714V44.8977C683.737 41.9886 682.999 39.7159 681.499 38.0795C680.021 36.4432 677.964 35.625 675.328 35.625C673.578 35.625 672.033 36.0114 670.692 36.7841C669.374 37.5341 668.351 38.6136 667.624 40.0227C666.919 41.4318 666.555 43.1364 666.533 45.1364ZM735.115 75L721.479 22.6364H738.217L745.274 56.1818H745.717L753.286 22.6364H769.615L777.388 55.9432H777.831L784.683 22.6364H801.422L787.751 75H769.922L761.74 44.4886H761.161L752.979 75H735.115ZM805.112 75V22.6364H821.783V75H805.112ZM813.464 16.5341C811.124 16.5341 809.112 15.7614 807.43 14.2159C805.749 12.6477 804.908 10.7614 804.908 8.55682C804.908 6.375 805.749 4.51136 807.43 2.96591C809.112 1.39772 811.124 0.613632 813.464 0.613632C815.828 0.613632 817.839 1.39772 819.499 2.96591C821.18 4.51136 822.021 6.375 822.021 8.55682C822.021 10.7614 821.18 12.6477 819.499 14.2159C817.839 15.7614 815.828 16.5341 813.464 16.5341ZM858.95 22.6364V34.9091H825.916V22.6364H858.95ZM832.837 10.0909H849.507V58.5341C849.507 59.5568 849.666 60.3864 849.984 61.0227C850.325 61.6364 850.814 62.0795 851.45 62.3523C852.087 62.6023 852.848 62.7273 853.734 62.7273C854.371 62.7273 855.041 62.6705 855.746 62.5568C856.473 62.4205 857.018 62.3068 857.382 62.2159L859.905 74.25C859.109 74.4773 857.984 74.7614 856.53 75.1023C855.098 75.4432 853.382 75.6591 851.382 75.75C847.473 75.9318 844.121 75.4773 841.325 74.3864C838.553 73.2727 836.428 71.5455 834.95 69.2045C833.496 66.8636 832.791 63.9205 832.837 60.375V10.0909ZM882.251 45.1364V75H865.581V5.18182H881.706V32.25H882.286C883.467 29.0227 885.399 26.5 888.081 24.6818C890.786 22.8636 894.092 21.9545 898.001 21.9545C901.683 21.9545 904.888 22.7727 907.615 24.4091C910.342 26.0227 912.456 28.3068 913.956 31.2614C915.479 34.2159 916.229 37.6705 916.206 41.625V75H899.536V44.8977C899.558 41.9886 898.831 39.7159 897.354 38.0795C895.876 36.4432 893.797 35.625 891.115 35.625C889.365 35.625 887.82 36.0114 886.479 36.7841C885.161 37.5341 884.126 38.6136 883.376 40.0227C882.649 41.4318 882.274 43.1364 882.251 45.1364ZM923.612 75V22.6364H940.283V75H923.612ZM931.964 16.5341C929.624 16.5341 927.612 15.7614 925.93 14.2159C924.249 12.6477 923.408 10.7614 923.408 8.55682C923.408 6.375 924.249 4.51136 925.93 2.96591C927.612 1.39772 929.624 0.613632 931.964 0.613632C934.328 0.613632 936.339 1.39772 937.999 2.96591C939.68 4.51136 940.521 6.375 940.521 8.55682C940.521 10.7614 939.68 12.6477 937.999 14.2159C936.339 15.7614 934.328 16.5341 931.964 16.5341ZM964.564 45.1364V75H947.893V22.6364H963.746V32.25H964.325C965.484 29.0455 967.462 26.5341 970.257 24.7159C973.053 22.875 976.382 21.9545 980.246 21.9545C983.928 21.9545 987.121 22.7841 989.825 24.4432C992.553 26.0795 994.666 28.375 996.166 31.3295C997.689 34.2614 998.439 37.6932 998.416 41.625V75H981.746V44.8977C981.768 41.9886 981.03 39.7159 979.53 38.0795C978.053 36.4432 975.996 35.625 973.359 35.625C971.609 35.625 970.064 36.0114 968.723 36.7841C967.405 37.5341 966.382 38.6136 965.655 40.0227C964.95 41.4318 964.587 43.1364 964.564 45.1364Z" fill="#2D3436"/>
</g>
<defs>
<filter id="filter0_d_0_1570" x="0.830963" y="0.613647" width="997.619" height="99.1136" filterUnits="userSpaceOnUse" color-interpolation-filters="sRGB">
<feFlood flood-opacity="0" result="BackgroundImageFix"/>
<feColorMatrix in="SourceAlpha" type="matrix" values="0 0 0 0 0 0 0 0 0 0 0 0 0 0 0 0 0 0 127 0" result="hardAlpha"/>
<feOffset dy="4"/>
<feColorMatrix type="matrix" values="0 0 0 0 1 0 0 0 0 1 0 0 0 0 1 0 0 0 1 0"/>
<feBlend mode="normal" in2="BackgroundImageFix" result="effect1_dropShadow_0_1570"/>
<feBlend mode="normal" in="SourceGraphic" in2="effect1_dropShadow_0_1570" result="shape"/>
</filter>
</defs>
</svg>
