<svg width="70" height="70" viewBox="0 0 70 70" fill="none" xmlns="http://www.w3.org/2000/svg">
<rect width="70" height="70" rx="35" fill="#9BC6FD"/>
<path d="M52.3042 43.6102V48.8602C52.3062 49.3475 52.2063 49.83 52.0111 50.2765C51.8158 50.7231 51.5295 51.1239 51.1703 51.4534C50.8112 51.7829 50.3872 52.0338 49.9255 52.1899C49.4638 52.346 48.9746 52.404 48.4892 52.3602C43.1042 51.775 37.9315 49.9349 33.3867 46.9877C29.1584 44.3008 25.5735 40.716 22.8867 36.4877C19.9292 31.9223 18.0886 26.7244 17.5142 21.3152C17.4705 20.8312 17.528 20.3435 17.6831 19.883C17.8382 19.4225 18.0875 18.9994 18.415 18.6405C18.7426 18.2816 19.1414 17.9949 19.5858 17.7986C20.0303 17.6023 20.5108 17.5006 20.9967 17.5002H26.2467C27.096 17.4918 27.9193 17.7926 28.5633 18.3464C29.2072 18.9001 29.6278 19.6692 29.7467 20.5102C29.9683 22.1903 30.3792 23.8399 30.9717 25.4277C31.2072 26.054 31.2581 26.7348 31.1185 27.3892C30.979 28.0436 30.6547 28.6444 30.1842 29.1202L27.9617 31.3427C30.4529 35.7239 34.0805 39.3514 38.4617 41.8427L40.6842 39.6202C41.16 39.1497 41.7607 38.8254 42.4152 38.6858C43.0696 38.5463 43.7503 38.5972 44.3767 38.8327C45.9644 39.4251 47.6141 39.8361 49.2942 40.0577C50.1443 40.1776 50.9207 40.6058 51.4756 41.2608C52.0306 41.9158 52.3255 42.7519 52.3042 43.6102Z" stroke="black" stroke-width="2" stroke-linecap="round" stroke-linejoin="round"/>
</svg>
