<svg width="330" height="248" viewBox="0 0 330 248" fill="none" xmlns="http://www.w3.org/2000/svg">
<rect x="20" y="113" width="119" height="32" rx="16" fill="#0064E5"/>
<g filter="url(#filter0_d_491_13803)">
<path d="M51.4062 12.4545H67.1335L77.9517 38.8182H78.4972L89.3153 12.4545H105.043V59H92.679V32.0909H92.3153L81.9517 58.6364H74.4972L64.1335 31.9091H63.7699V59H51.4062V12.4545ZM127.031 59.6364C123.243 59.6364 120.001 58.8864 117.304 57.3864C114.607 55.8712 112.539 53.7652 111.099 51.0682C109.66 48.3561 108.94 45.2121 108.94 41.6364C108.94 38.0606 109.66 34.9242 111.099 32.2273C112.539 29.5152 114.607 27.4091 117.304 25.9091C120.001 24.3939 123.243 23.6364 127.031 23.6364C130.819 23.6364 134.062 24.3939 136.759 25.9091C139.455 27.4091 141.524 29.5152 142.963 32.2273C144.402 34.9242 145.122 38.0606 145.122 41.6364C145.122 45.2121 144.402 48.3561 142.963 51.0682C141.524 53.7652 139.455 55.8712 136.759 57.3864C134.062 58.8864 130.819 59.6364 127.031 59.6364ZM127.122 50.3636C128.183 50.3636 129.099 50.0076 129.872 49.2955C130.645 48.5833 131.243 47.5682 131.668 46.25C132.092 44.9318 132.304 43.3636 132.304 41.5455C132.304 39.7121 132.092 38.1439 131.668 36.8409C131.243 35.5227 130.645 34.5076 129.872 33.7955C129.099 33.0833 128.183 32.7273 127.122 32.7273C126.001 32.7273 125.039 33.0833 124.236 33.7955C123.433 34.5076 122.819 35.5227 122.395 36.8409C121.971 38.1439 121.759 39.7121 121.759 41.5455C121.759 43.3636 121.971 44.9318 122.395 46.25C122.819 47.5682 123.433 48.5833 124.236 49.2955C125.039 50.0076 126.001 50.3636 127.122 50.3636ZM183.332 24.0909L171.605 59H157.06L145.332 24.0909H158.514L164.151 47.1818H164.514L170.151 24.0909H183.332ZM185.901 59V24.0909H198.446V59H185.901ZM192.173 20.4545C190.476 20.4545 189.022 19.8939 187.81 18.7727C186.598 17.6515 185.991 16.303 185.991 14.7273C185.991 13.1515 186.598 11.803 187.81 10.6818C189.022 9.56061 190.476 9 192.173 9C193.885 9 195.34 9.56061 196.537 10.6818C197.749 11.803 198.355 13.1515 198.355 14.7273C198.355 16.303 197.749 17.6515 196.537 18.7727C195.34 19.8939 193.885 20.4545 192.173 20.4545ZM216.384 39.3636V59H203.838V24.0909H215.747V30.7273H216.111C216.868 28.5152 218.202 26.7803 220.111 25.5227C222.035 24.2652 224.277 23.6364 226.838 23.6364C229.308 23.6364 231.452 24.2045 233.27 25.3409C235.103 26.4621 236.52 28.0076 237.52 29.9773C238.535 31.947 239.035 34.197 239.02 36.7273V59H226.474V39.3636C226.49 37.6364 226.05 36.2803 225.156 35.2955C224.277 34.3106 223.05 33.8182 221.474 33.8182C220.444 33.8182 219.543 34.0455 218.77 34.5C218.012 34.9394 217.429 35.5758 217.02 36.4091C216.611 37.2273 216.399 38.2121 216.384 39.3636ZM261.031 72.8182C257.531 72.8182 254.531 72.3182 252.031 71.3182C249.546 70.3333 247.615 68.9697 246.236 67.2273C244.872 65.5 244.107 63.5152 243.94 61.2727H256.031C256.152 62.0152 256.455 62.6136 256.94 63.0682C257.425 63.5227 258.046 63.8485 258.804 64.0455C259.577 64.2576 260.44 64.3636 261.395 64.3636C263.016 64.3636 264.357 63.9697 265.418 63.1818C266.493 62.3939 267.031 60.9697 267.031 58.9091V53H266.668C266.213 54.1818 265.516 55.1894 264.577 56.0227C263.637 56.8409 262.509 57.4697 261.19 57.9091C259.872 58.3333 258.425 58.5455 256.849 58.5455C254.365 58.5455 252.077 57.9697 249.986 56.8182C247.91 55.6667 246.243 53.8409 244.986 51.3409C243.743 48.8409 243.122 45.5758 243.122 41.5455C243.122 37.3333 243.774 33.9091 245.077 31.2727C246.395 28.6364 248.092 26.7045 250.168 25.4773C252.259 24.25 254.455 23.6364 256.759 23.6364C258.486 23.6364 260.001 23.9394 261.304 24.5455C262.607 25.1364 263.698 25.9318 264.577 26.9318C265.455 27.9167 266.122 29 266.577 30.1818H266.849V24.0909H279.395V58.9091C279.395 61.8636 278.63 64.3712 277.099 66.4318C275.584 68.5076 273.448 70.0909 270.69 71.1818C267.933 72.2727 264.713 72.8182 261.031 72.8182ZM261.486 49.6364C262.637 49.6364 263.622 49.3182 264.44 48.6818C265.274 48.0303 265.91 47.1061 266.349 45.9091C266.804 44.697 267.031 43.2424 267.031 41.5455C267.031 39.8182 266.804 38.3409 266.349 37.1136C265.91 35.8712 265.274 34.9242 264.44 34.2727C263.622 33.6061 262.637 33.2727 261.486 33.2727C260.334 33.2727 259.349 33.6061 258.531 34.2727C257.728 34.9242 257.107 35.8712 256.668 37.1136C256.243 38.3409 256.031 39.8182 256.031 41.5455C256.031 43.2727 256.243 44.7424 256.668 45.9545C257.107 47.1515 257.728 48.0682 258.531 48.7045C259.349 49.3258 260.334 49.6364 261.486 49.6364Z" fill="#2D3436"/>
</g>
<g filter="url(#filter1_d_491_13803)">
<path d="M4.22159 125V90.0909H17.9943C20.642 90.0909 22.8977 90.5966 24.7614 91.608C26.625 92.608 28.0455 94 29.0227 95.7841C30.0114 97.5568 30.5057 99.6023 30.5057 101.92C30.5057 104.239 30.0057 106.284 29.0057 108.057C28.0057 109.83 26.5568 111.21 24.6591 112.199C22.7727 113.187 20.4886 113.682 17.8068 113.682H9.02841V107.767H16.6136C18.0341 107.767 19.2045 107.523 20.125 107.034C21.0568 106.534 21.75 105.847 22.2045 104.972C22.6705 104.085 22.9034 103.068 22.9034 101.92C22.9034 100.761 22.6705 99.75 22.2045 98.8864C21.75 98.0114 21.0568 97.3352 20.125 96.858C19.1932 96.3693 18.0114 96.125 16.5795 96.125H11.6023V125H4.22159ZM40.9261 125.494C39.2557 125.494 37.767 125.205 36.4602 124.625C35.1534 124.034 34.1193 123.165 33.358 122.017C32.608 120.858 32.233 119.415 32.233 117.688C32.233 116.233 32.5 115.011 33.0341 114.023C33.5682 113.034 34.2955 112.239 35.2159 111.636C36.1364 111.034 37.1818 110.58 38.3523 110.273C39.5341 109.966 40.7727 109.75 42.0682 109.625C43.5909 109.466 44.8182 109.318 45.75 109.182C46.6818 109.034 47.358 108.818 47.7784 108.534C48.1989 108.25 48.4091 107.83 48.4091 107.273V107.17C48.4091 106.091 48.0682 105.256 47.3864 104.665C46.7159 104.074 45.7614 103.778 44.5227 103.778C43.2159 103.778 42.1761 104.068 41.4034 104.648C40.6307 105.216 40.1193 105.932 39.8693 106.795L33.1534 106.25C33.4943 104.659 34.1648 103.284 35.1648 102.125C36.1648 100.955 37.4545 100.057 39.0341 99.4318C40.625 98.7955 42.4659 98.4773 44.5568 98.4773C46.0114 98.4773 47.4034 98.6477 48.733 98.9886C50.0739 99.3295 51.2614 99.858 52.2955 100.574C53.3409 101.29 54.1648 102.21 54.767 103.335C55.3693 104.449 55.6705 105.784 55.6705 107.341V125H48.7841V121.369H48.5795C48.1591 122.188 47.5966 122.909 46.892 123.534C46.1875 124.148 45.3409 124.631 44.3523 124.983C43.3636 125.324 42.2216 125.494 40.9261 125.494ZM43.0057 120.483C44.0739 120.483 45.017 120.273 45.8352 119.852C46.6534 119.42 47.2955 118.841 47.7614 118.114C48.2273 117.386 48.4602 116.562 48.4602 115.642V112.864C48.233 113.011 47.9205 113.148 47.5227 113.273C47.1364 113.386 46.6989 113.494 46.2102 113.597C45.7216 113.687 45.233 113.773 44.7443 113.852C44.2557 113.92 43.8125 113.983 43.4148 114.04C42.5625 114.165 41.8182 114.364 41.1818 114.636C40.5455 114.909 40.0511 115.278 39.6989 115.744C39.3466 116.199 39.1705 116.767 39.1705 117.449C39.1705 118.438 39.5284 119.193 40.2443 119.716C40.9716 120.227 41.892 120.483 43.0057 120.483ZM82.0881 106.284L75.4403 106.693C75.3267 106.125 75.0824 105.614 74.7074 105.159C74.3324 104.693 73.8381 104.324 73.2244 104.051C72.6222 103.767 71.9006 103.625 71.0597 103.625C69.9347 103.625 68.9858 103.864 68.2131 104.341C67.4403 104.807 67.054 105.432 67.054 106.216C67.054 106.841 67.304 107.369 67.804 107.801C68.304 108.233 69.1619 108.58 70.3778 108.841L75.1165 109.795C77.6619 110.318 79.5597 111.159 80.8097 112.318C82.0597 113.477 82.6847 115 82.6847 116.886C82.6847 118.602 82.179 120.108 81.1676 121.403C80.1676 122.699 78.7926 123.71 77.0426 124.438C75.304 125.153 73.2983 125.511 71.0256 125.511C67.5597 125.511 64.7983 124.79 62.7415 123.347C60.696 121.892 59.4972 119.915 59.1449 117.415L66.2869 117.04C66.5028 118.097 67.0256 118.903 67.8551 119.46C68.6847 120.006 69.7472 120.278 71.0426 120.278C72.3153 120.278 73.3381 120.034 74.1108 119.545C74.8949 119.045 75.2926 118.403 75.304 117.619C75.2926 116.96 75.0142 116.42 74.4688 116C73.9233 115.568 73.0824 115.239 71.946 115.011L67.4119 114.108C64.8551 113.597 62.9517 112.71 61.7017 111.449C60.4631 110.187 59.8438 108.58 59.8438 106.625C59.8438 104.943 60.2983 103.494 61.2074 102.278C62.1278 101.062 63.4176 100.125 65.0767 99.4659C66.7472 98.8068 68.7017 98.4773 70.9403 98.4773C74.2472 98.4773 76.8494 99.1761 78.7472 100.574C80.6563 101.972 81.7699 103.875 82.0881 106.284ZM108.041 106.284L101.393 106.693C101.28 106.125 101.036 105.614 100.661 105.159C100.286 104.693 99.7912 104.324 99.1776 104.051C98.5753 103.767 97.8537 103.625 97.0128 103.625C95.8878 103.625 94.9389 103.864 94.1662 104.341C93.3935 104.807 93.0071 105.432 93.0071 106.216C93.0071 106.841 93.2571 107.369 93.7571 107.801C94.2571 108.233 95.1151 108.58 96.331 108.841L101.07 109.795C103.615 110.318 105.513 111.159 106.763 112.318C108.013 113.477 108.638 115 108.638 116.886C108.638 118.602 108.132 120.108 107.121 121.403C106.121 122.699 104.746 123.71 102.996 124.438C101.257 125.153 99.2514 125.511 96.9787 125.511C93.5128 125.511 90.7514 124.79 88.6946 123.347C86.6491 121.892 85.4503 119.915 85.098 117.415L92.2401 117.04C92.456 118.097 92.9787 118.903 93.8082 119.46C94.6378 120.006 95.7003 120.278 96.9957 120.278C98.2685 120.278 99.2912 120.034 100.064 119.545C100.848 119.045 101.246 118.403 101.257 117.619C101.246 116.96 100.967 116.42 100.422 116C99.8764 115.568 99.0355 115.239 97.8991 115.011L93.3651 114.108C90.8082 113.597 88.9048 112.71 87.6548 111.449C86.4162 110.187 85.7969 108.58 85.7969 106.625C85.7969 104.943 86.2514 103.494 87.1605 102.278C88.081 101.062 89.3707 100.125 91.0298 99.4659C92.7003 98.8068 94.6548 98.4773 96.8935 98.4773C100.2 98.4773 102.803 99.1761 104.7 100.574C106.609 101.972 107.723 103.875 108.041 106.284ZM112.21 125V98.8182H119.472V125H112.21ZM115.858 95.4432C114.778 95.4432 113.852 95.0852 113.08 94.3693C112.318 93.642 111.938 92.7727 111.938 91.7614C111.938 90.7614 112.318 89.9034 113.08 89.1875C113.852 88.4602 114.778 88.0966 115.858 88.0966C116.938 88.0966 117.858 88.4602 118.619 89.1875C119.392 89.9034 119.778 90.7614 119.778 91.7614C119.778 92.7727 119.392 93.642 118.619 94.3693C117.858 95.0852 116.938 95.4432 115.858 95.4432ZM136.118 125.511C133.47 125.511 131.18 124.949 129.249 123.824C127.328 122.687 125.845 121.108 124.8 119.085C123.754 117.051 123.232 114.693 123.232 112.011C123.232 109.307 123.754 106.943 124.8 104.92C125.845 102.886 127.328 101.307 129.249 100.182C131.18 99.0455 133.47 98.4773 136.118 98.4773C138.766 98.4773 141.05 99.0455 142.97 100.182C144.902 101.307 146.391 102.886 147.436 104.92C148.482 106.943 149.004 109.307 149.004 112.011C149.004 114.693 148.482 117.051 147.436 119.085C146.391 121.108 144.902 122.687 142.97 123.824C141.05 124.949 138.766 125.511 136.118 125.511ZM136.152 119.886C137.357 119.886 138.362 119.545 139.169 118.864C139.976 118.17 140.584 117.227 140.993 116.034C141.413 114.841 141.624 113.483 141.624 111.96C141.624 110.438 141.413 109.08 140.993 107.886C140.584 106.693 139.976 105.75 139.169 105.057C138.362 104.364 137.357 104.017 136.152 104.017C134.936 104.017 133.913 104.364 133.084 105.057C132.266 105.75 131.646 106.693 131.226 107.886C130.817 109.08 130.612 110.438 130.612 111.96C130.612 113.483 130.817 114.841 131.226 116.034C131.646 117.227 132.266 118.17 133.084 118.864C133.913 119.545 134.936 119.886 136.152 119.886ZM159.987 109.864V125H152.726V98.8182H159.646V103.438H159.953C160.533 101.915 161.504 100.71 162.868 99.8239C164.232 98.9261 165.885 98.4773 167.828 98.4773C169.646 98.4773 171.232 98.875 172.584 99.6705C173.936 100.466 174.987 101.602 175.737 103.08C176.487 104.545 176.862 106.295 176.862 108.33V125H169.601V109.625C169.612 108.023 169.203 106.773 168.374 105.875C167.544 104.966 166.402 104.511 164.947 104.511C163.97 104.511 163.107 104.722 162.357 105.142C161.618 105.562 161.038 106.176 160.618 106.983C160.209 107.778 159.999 108.739 159.987 109.864ZM196.859 125L189.734 98.8182H197.081L201.138 116.409H201.376L205.604 98.8182H212.814L217.109 116.307H217.331L221.32 98.8182H228.649L221.541 125H213.854L209.354 108.534H209.03L204.53 125H196.859ZM231.523 125V98.8182H238.784V125H231.523ZM235.17 95.4432C234.091 95.4432 233.165 95.0852 232.392 94.3693C231.631 93.642 231.25 92.7727 231.25 91.7614C231.25 90.7614 231.631 89.9034 232.392 89.1875C233.165 88.4602 234.091 88.0966 235.17 88.0966C236.25 88.0966 237.17 88.4602 237.932 89.1875C238.705 89.9034 239.091 90.7614 239.091 91.7614C239.091 92.7727 238.705 93.642 237.932 94.3693C237.17 95.0852 236.25 95.4432 235.17 95.4432ZM257.527 98.8182V104.273H241.76V98.8182H257.527ZM245.339 92.5455H252.601V116.955C252.601 117.625 252.703 118.148 252.908 118.523C253.112 118.886 253.396 119.142 253.76 119.29C254.135 119.437 254.567 119.511 255.055 119.511C255.396 119.511 255.737 119.483 256.078 119.426C256.419 119.358 256.68 119.307 256.862 119.273L258.004 124.676C257.641 124.79 257.129 124.92 256.47 125.068C255.811 125.227 255.01 125.324 254.067 125.358C252.317 125.426 250.783 125.193 249.464 124.659C248.158 124.125 247.141 123.295 246.413 122.17C245.686 121.045 245.328 119.625 245.339 117.909V92.5455ZM269.081 109.864V125H261.82V90.0909H268.876V103.438H269.183C269.774 101.892 270.729 100.682 272.047 99.8068C273.365 98.9205 275.018 98.4773 277.007 98.4773C278.825 98.4773 280.411 98.875 281.763 99.6705C283.126 100.455 284.183 101.585 284.933 103.062C285.695 104.528 286.07 106.284 286.058 108.33V125H278.797V109.625C278.808 108.011 278.399 106.756 277.57 105.858C276.751 104.96 275.604 104.511 274.126 104.511C273.138 104.511 272.263 104.722 271.501 105.142C270.751 105.562 270.161 106.176 269.729 106.983C269.308 107.778 269.092 108.739 269.081 109.864ZM290.773 125V98.8182H298.034V125H290.773ZM294.42 95.4432C293.341 95.4432 292.415 95.0852 291.642 94.3693C290.881 93.642 290.5 92.7727 290.5 91.7614C290.5 90.7614 290.881 89.9034 291.642 89.1875C292.415 88.4602 293.341 88.0966 294.42 88.0966C295.5 88.0966 296.42 88.4602 297.182 89.1875C297.955 89.9034 298.341 90.7614 298.341 91.7614C298.341 92.7727 297.955 93.642 297.182 94.3693C296.42 95.0852 295.5 95.4432 294.42 95.4432ZM310.112 109.864V125H302.851V98.8182H309.771V103.438H310.078C310.658 101.915 311.629 100.71 312.993 99.8239C314.357 98.9261 316.01 98.4773 317.953 98.4773C319.771 98.4773 321.357 98.875 322.709 99.6705C324.061 100.466 325.112 101.602 325.862 103.08C326.612 104.545 326.987 106.295 326.987 108.33V125H319.726V109.625C319.737 108.023 319.328 106.773 318.499 105.875C317.669 104.966 316.527 104.511 315.072 104.511C314.095 104.511 313.232 104.722 312.482 105.142C311.743 105.562 311.163 106.176 310.743 106.983C310.334 107.778 310.124 108.739 310.112 109.864Z" fill="#2D3436"/>
</g>
<path d="M66.3608 173.545H70.0511V184.881C70.0511 186.153 69.7472 187.267 69.1392 188.222C68.5369 189.176 67.6932 189.92 66.608 190.455C65.5227 190.983 64.2585 191.247 62.8153 191.247C61.3665 191.247 60.0994 190.983 59.0142 190.455C57.929 189.92 57.0852 189.176 56.483 188.222C55.8807 187.267 55.5795 186.153 55.5795 184.881V173.545H59.2699V184.565C59.2699 185.23 59.4148 185.821 59.7045 186.338C60 186.855 60.4148 187.261 60.9489 187.557C61.483 187.852 62.1051 188 62.8153 188C63.5313 188 64.1534 187.852 64.6818 187.557C65.2159 187.261 65.6278 186.855 65.9176 186.338C66.2131 185.821 66.3608 185.23 66.3608 184.565V173.545ZM76.8999 183.432V191H73.2692V177.909H76.7294V180.219H76.8828C77.1726 179.457 77.6584 178.855 78.3402 178.412C79.022 177.963 79.8487 177.739 80.8203 177.739C81.7294 177.739 82.522 177.938 83.1982 178.335C83.8743 178.733 84.3999 179.301 84.7749 180.04C85.1499 180.773 85.3374 181.648 85.3374 182.665V191H81.7067V183.312C81.7124 182.511 81.5078 181.886 81.093 181.438C80.6783 180.983 80.1072 180.756 79.38 180.756C78.8913 180.756 78.4595 180.861 78.0845 181.071C77.7152 181.281 77.4254 181.588 77.2152 181.991C77.0107 182.389 76.9055 182.869 76.8999 183.432ZM88.4489 191V177.909H92.0795V191H88.4489ZM90.2727 176.222C89.733 176.222 89.2699 176.043 88.8835 175.685C88.5028 175.321 88.3125 174.886 88.3125 174.381C88.3125 173.881 88.5028 173.452 88.8835 173.094C89.2699 172.73 89.733 172.548 90.2727 172.548C90.8125 172.548 91.2727 172.73 91.6534 173.094C92.0398 173.452 92.233 173.881 92.233 174.381C92.233 174.886 92.0398 175.321 91.6534 175.685C91.2727 176.043 90.8125 176.222 90.2727 176.222ZM102.278 177.909V180.636H94.1982V177.909H102.278ZM96.0476 191V176.963C96.0476 176.014 96.2322 175.227 96.6016 174.602C96.9766 173.977 97.4879 173.509 98.1357 173.196C98.7834 172.884 99.5192 172.727 100.343 172.727C100.9 172.727 101.408 172.77 101.869 172.855C102.335 172.94 102.681 173.017 102.908 173.085L102.261 175.812C102.119 175.767 101.942 175.724 101.732 175.685C101.528 175.645 101.317 175.625 101.102 175.625C100.567 175.625 100.195 175.75 99.9851 176C99.7749 176.244 99.6697 176.588 99.6697 177.031V191H96.0476ZM104.746 191V177.909H108.376V191H104.746ZM106.57 176.222C106.03 176.222 105.567 176.043 105.18 175.685C104.8 175.321 104.609 174.886 104.609 174.381C104.609 173.881 104.8 173.452 105.18 173.094C105.567 172.73 106.03 172.548 106.57 172.548C107.109 172.548 107.57 172.73 107.95 173.094C108.337 173.452 108.53 173.881 108.53 174.381C108.53 174.886 108.337 175.321 107.95 175.685C107.57 176.043 107.109 176.222 106.57 176.222ZM117.501 191.256C116.154 191.256 114.995 190.983 114.023 190.438C113.058 189.886 112.313 189.108 111.79 188.102C111.268 187.091 111.006 185.895 111.006 184.514C111.006 183.168 111.268 181.986 111.79 180.969C112.313 179.952 113.049 179.159 113.998 178.591C114.952 178.023 116.072 177.739 117.356 177.739C118.219 177.739 119.023 177.878 119.768 178.156C120.518 178.429 121.171 178.841 121.728 179.392C122.29 179.943 122.728 180.636 123.04 181.472C123.353 182.301 123.509 183.273 123.509 184.386V185.384H112.455V183.134H120.092C120.092 182.611 119.978 182.148 119.751 181.744C119.523 181.341 119.208 181.026 118.805 180.798C118.407 180.565 117.944 180.449 117.415 180.449C116.864 180.449 116.376 180.577 115.95 180.832C115.529 181.082 115.2 181.42 114.961 181.847C114.722 182.267 114.6 182.736 114.594 183.253V185.392C114.594 186.04 114.714 186.599 114.952 187.071C115.197 187.543 115.54 187.906 115.984 188.162C116.427 188.418 116.952 188.545 117.56 188.545C117.964 188.545 118.333 188.489 118.668 188.375C119.004 188.261 119.29 188.091 119.529 187.864C119.768 187.636 119.95 187.358 120.075 187.028L123.433 187.25C123.262 188.057 122.913 188.761 122.384 189.364C121.862 189.96 121.185 190.426 120.356 190.761C119.532 191.091 118.58 191.256 117.501 191.256ZM130.952 191.213C129.958 191.213 129.058 190.957 128.251 190.446C127.45 189.929 126.813 189.17 126.342 188.17C125.876 187.165 125.643 185.932 125.643 184.472C125.643 182.972 125.884 181.724 126.367 180.73C126.85 179.73 127.492 178.983 128.293 178.489C129.1 177.989 129.984 177.739 130.944 177.739C131.677 177.739 132.288 177.864 132.776 178.114C133.271 178.358 133.668 178.665 133.969 179.034C134.276 179.398 134.509 179.756 134.668 180.108H134.779V173.545H138.401V191H134.822V188.903H134.668C134.498 189.267 134.256 189.628 133.944 189.986C133.637 190.338 133.237 190.631 132.742 190.864C132.254 191.097 131.657 191.213 130.952 191.213ZM132.103 188.324C132.688 188.324 133.183 188.165 133.586 187.847C133.995 187.523 134.308 187.071 134.523 186.491C134.745 185.912 134.856 185.233 134.856 184.455C134.856 183.676 134.748 183 134.532 182.426C134.316 181.852 134.004 181.409 133.594 181.097C133.185 180.784 132.688 180.628 132.103 180.628C131.506 180.628 131.004 180.79 130.594 181.114C130.185 181.437 129.876 181.886 129.665 182.46C129.455 183.034 129.35 183.699 129.35 184.455C129.35 185.216 129.455 185.889 129.665 186.474C129.881 187.054 130.191 187.509 130.594 187.838C131.004 188.162 131.506 188.324 132.103 188.324ZM156.978 178.565C156.91 177.878 156.617 177.344 156.1 176.963C155.583 176.582 154.881 176.392 153.995 176.392C153.393 176.392 152.884 176.477 152.469 176.648C152.055 176.812 151.737 177.043 151.515 177.338C151.299 177.634 151.191 177.969 151.191 178.344C151.18 178.656 151.245 178.929 151.387 179.162C151.535 179.395 151.737 179.597 151.992 179.767C152.248 179.932 152.543 180.077 152.879 180.202C153.214 180.321 153.572 180.423 153.952 180.509L155.521 180.884C156.282 181.054 156.981 181.281 157.617 181.565C158.254 181.849 158.805 182.199 159.271 182.614C159.737 183.028 160.097 183.517 160.353 184.08C160.614 184.642 160.748 185.287 160.754 186.014C160.748 187.082 160.475 188.009 159.935 188.793C159.401 189.571 158.629 190.176 157.617 190.608C156.612 191.034 155.398 191.247 153.978 191.247C152.569 191.247 151.342 191.031 150.296 190.599C149.256 190.168 148.444 189.528 147.859 188.682C147.279 187.83 146.975 186.776 146.947 185.52H150.518C150.558 186.105 150.725 186.594 151.021 186.986C151.322 187.372 151.722 187.665 152.222 187.864C152.728 188.057 153.299 188.153 153.935 188.153C154.56 188.153 155.103 188.062 155.563 187.881C156.029 187.699 156.39 187.446 156.646 187.122C156.901 186.798 157.029 186.426 157.029 186.006C157.029 185.614 156.913 185.284 156.68 185.017C156.452 184.75 156.117 184.523 155.674 184.335C155.237 184.148 154.7 183.977 154.063 183.824L152.163 183.347C150.691 182.989 149.529 182.429 148.677 181.668C147.825 180.906 147.401 179.881 147.407 178.591C147.401 177.534 147.683 176.611 148.251 175.821C148.825 175.031 149.612 174.415 150.612 173.972C151.612 173.528 152.748 173.307 154.021 173.307C155.316 173.307 156.447 173.528 157.413 173.972C158.384 174.415 159.14 175.031 159.68 175.821C160.219 176.611 160.498 177.526 160.515 178.565H156.978ZM169.384 191.256C168.037 191.256 166.878 190.983 165.906 190.438C164.94 189.886 164.196 189.108 163.673 188.102C163.151 187.091 162.889 185.895 162.889 184.514C162.889 183.168 163.151 181.986 163.673 180.969C164.196 179.952 164.932 179.159 165.881 178.591C166.835 178.023 167.955 177.739 169.239 177.739C170.102 177.739 170.906 177.878 171.651 178.156C172.401 178.429 173.054 178.841 173.611 179.392C174.173 179.943 174.611 180.636 174.923 181.472C175.236 182.301 175.392 183.273 175.392 184.386V185.384H164.338V183.134H171.974C171.974 182.611 171.861 182.148 171.634 181.744C171.406 181.341 171.091 181.026 170.688 180.798C170.29 180.565 169.827 180.449 169.298 180.449C168.747 180.449 168.259 180.577 167.832 180.832C167.412 181.082 167.082 181.42 166.844 181.847C166.605 182.267 166.483 182.736 166.477 183.253V185.392C166.477 186.04 166.597 186.599 166.835 187.071C167.08 187.543 167.423 187.906 167.866 188.162C168.31 188.418 168.835 188.545 169.443 188.545C169.847 188.545 170.216 188.489 170.551 188.375C170.886 188.261 171.173 188.091 171.412 187.864C171.651 187.636 171.832 187.358 171.957 187.028L175.315 187.25C175.145 188.057 174.795 188.761 174.267 189.364C173.744 189.96 173.068 190.426 172.239 190.761C171.415 191.091 170.463 191.256 169.384 191.256ZM181.744 191.247C180.909 191.247 180.165 191.102 179.511 190.812C178.858 190.517 178.341 190.082 177.96 189.509C177.585 188.929 177.398 188.207 177.398 187.344C177.398 186.616 177.531 186.006 177.798 185.511C178.065 185.017 178.429 184.619 178.889 184.318C179.349 184.017 179.872 183.79 180.457 183.636C181.048 183.483 181.668 183.375 182.315 183.312C183.077 183.233 183.69 183.159 184.156 183.091C184.622 183.017 184.96 182.909 185.17 182.767C185.381 182.625 185.486 182.415 185.486 182.136V182.085C185.486 181.545 185.315 181.128 184.974 180.832C184.639 180.537 184.162 180.389 183.543 180.389C182.889 180.389 182.369 180.534 181.983 180.824C181.597 181.108 181.341 181.466 181.216 181.898L177.858 181.625C178.028 180.83 178.364 180.142 178.864 179.562C179.364 178.977 180.009 178.528 180.798 178.216C181.594 177.898 182.514 177.739 183.56 177.739C184.287 177.739 184.983 177.824 185.648 177.994C186.318 178.165 186.912 178.429 187.429 178.787C187.952 179.145 188.364 179.605 188.665 180.168C188.966 180.724 189.116 181.392 189.116 182.17V191H185.673V189.185H185.571C185.361 189.594 185.08 189.955 184.727 190.267C184.375 190.574 183.952 190.815 183.457 190.991C182.963 191.162 182.392 191.247 181.744 191.247ZM182.784 188.741C183.318 188.741 183.79 188.636 184.199 188.426C184.608 188.21 184.929 187.92 185.162 187.557C185.395 187.193 185.511 186.781 185.511 186.321V184.932C185.398 185.006 185.241 185.074 185.043 185.136C184.849 185.193 184.631 185.247 184.386 185.298C184.142 185.344 183.898 185.386 183.653 185.426C183.409 185.46 183.188 185.491 182.989 185.52C182.563 185.582 182.19 185.682 181.872 185.818C181.554 185.955 181.307 186.139 181.131 186.372C180.955 186.599 180.866 186.884 180.866 187.224C180.866 187.719 181.045 188.097 181.403 188.358C181.767 188.614 182.227 188.741 182.784 188.741ZM197.391 176.588V173.545H211.727V176.588H206.383V191H202.735V176.588H197.391ZM212.91 191V177.909H216.43V180.193H216.566C216.805 179.381 217.205 178.767 217.768 178.352C218.33 177.932 218.978 177.722 219.711 177.722C219.893 177.722 220.089 177.733 220.299 177.756C220.509 177.778 220.694 177.81 220.853 177.849V181.071C220.683 181.02 220.447 180.974 220.146 180.935C219.844 180.895 219.569 180.875 219.319 180.875C218.785 180.875 218.308 180.991 217.887 181.224C217.472 181.452 217.143 181.77 216.898 182.179C216.66 182.588 216.54 183.06 216.54 183.594V191H212.91ZM226.338 191.247C225.503 191.247 224.759 191.102 224.105 190.812C223.452 190.517 222.935 190.082 222.554 189.509C222.179 188.929 221.991 188.207 221.991 187.344C221.991 186.616 222.125 186.006 222.392 185.511C222.659 185.017 223.023 184.619 223.483 184.318C223.943 184.017 224.466 183.79 225.051 183.636C225.642 183.483 226.261 183.375 226.909 183.312C227.67 183.233 228.284 183.159 228.75 183.091C229.216 183.017 229.554 182.909 229.764 182.767C229.974 182.625 230.08 182.415 230.08 182.136V182.085C230.08 181.545 229.909 181.128 229.568 180.832C229.233 180.537 228.756 180.389 228.136 180.389C227.483 180.389 226.963 180.534 226.577 180.824C226.19 181.108 225.935 181.466 225.81 181.898L222.452 181.625C222.622 180.83 222.957 180.142 223.457 179.562C223.957 178.977 224.602 178.528 225.392 178.216C226.188 177.898 227.108 177.739 228.153 177.739C228.881 177.739 229.577 177.824 230.241 177.994C230.912 178.165 231.506 178.429 232.023 178.787C232.545 179.145 232.957 179.605 233.259 180.168C233.56 180.724 233.71 181.392 233.71 182.17V191H230.267V189.185H230.165C229.955 189.594 229.673 189.955 229.321 190.267C228.969 190.574 228.545 190.815 228.051 190.991C227.557 191.162 226.986 191.247 226.338 191.247ZM227.378 188.741C227.912 188.741 228.384 188.636 228.793 188.426C229.202 188.21 229.523 187.92 229.756 187.557C229.989 187.193 230.105 186.781 230.105 186.321V184.932C229.991 185.006 229.835 185.074 229.636 185.136C229.443 185.193 229.224 185.247 228.98 185.298C228.736 185.344 228.491 185.386 228.247 185.426C228.003 185.46 227.781 185.491 227.582 185.52C227.156 185.582 226.784 185.682 226.466 185.818C226.148 185.955 225.901 186.139 225.724 186.372C225.548 186.599 225.46 186.884 225.46 187.224C225.46 187.719 225.639 188.097 225.997 188.358C226.361 188.614 226.821 188.741 227.378 188.741ZM248.513 177.909L243.936 191H239.845L235.268 177.909H239.104L241.822 187.276H241.959L244.669 177.909H248.513ZM256.165 191.256C254.818 191.256 253.659 190.983 252.688 190.438C251.722 189.886 250.977 189.108 250.455 188.102C249.932 187.091 249.67 185.895 249.67 184.514C249.67 183.168 249.932 181.986 250.455 180.969C250.977 179.952 251.713 179.159 252.662 178.591C253.616 178.023 254.736 177.739 256.02 177.739C256.884 177.739 257.688 177.878 258.432 178.156C259.182 178.429 259.835 178.841 260.392 179.392C260.955 179.943 261.392 180.636 261.705 181.472C262.017 182.301 262.173 183.273 262.173 184.386V185.384H251.119V183.134H258.756C258.756 182.611 258.642 182.148 258.415 181.744C258.188 181.341 257.872 181.026 257.469 180.798C257.071 180.565 256.608 180.449 256.08 180.449C255.528 180.449 255.04 180.577 254.614 180.832C254.193 181.082 253.864 181.42 253.625 181.847C253.386 182.267 253.264 182.736 253.259 183.253V185.392C253.259 186.04 253.378 186.599 253.616 187.071C253.861 187.543 254.205 187.906 254.648 188.162C255.091 188.418 255.616 188.545 256.224 188.545C256.628 188.545 256.997 188.489 257.332 188.375C257.668 188.261 257.955 188.091 258.193 187.864C258.432 187.636 258.614 187.358 258.739 187.028L262.097 187.25C261.926 188.057 261.577 188.761 261.048 189.364C260.526 189.96 259.849 190.426 259.02 190.761C258.196 191.091 257.244 191.256 256.165 191.256ZM268.423 173.545V191H264.793V173.545H268.423ZM115.244 227V209.545H122.13C123.454 209.545 124.582 209.798 125.513 210.304C126.445 210.804 127.156 211.5 127.644 212.392C128.138 213.278 128.386 214.301 128.386 215.46C128.386 216.619 128.136 217.642 127.636 218.528C127.136 219.415 126.411 220.105 125.462 220.599C124.519 221.094 123.377 221.341 122.036 221.341H117.647V218.384H121.44C122.15 218.384 122.735 218.261 123.195 218.017C123.661 217.767 124.008 217.423 124.235 216.986C124.468 216.543 124.585 216.034 124.585 215.46C124.585 214.881 124.468 214.375 124.235 213.943C124.008 213.506 123.661 213.168 123.195 212.929C122.729 212.685 122.138 212.562 121.423 212.562H118.934V227H115.244ZM134.595 209.545V227H130.964V209.545H134.595ZM141.487 227.247C140.651 227.247 139.907 227.102 139.254 226.812C138.6 226.517 138.083 226.082 137.702 225.509C137.327 224.929 137.14 224.207 137.14 223.344C137.14 222.616 137.273 222.006 137.54 221.511C137.808 221.017 138.171 220.619 138.631 220.318C139.092 220.017 139.614 219.79 140.2 219.636C140.79 219.483 141.41 219.375 142.058 219.312C142.819 219.233 143.433 219.159 143.898 219.091C144.364 219.017 144.702 218.909 144.913 218.767C145.123 218.625 145.228 218.415 145.228 218.136V218.085C145.228 217.545 145.058 217.128 144.717 216.832C144.381 216.537 143.904 216.389 143.285 216.389C142.631 216.389 142.112 216.534 141.725 216.824C141.339 217.108 141.083 217.466 140.958 217.898L137.6 217.625C137.771 216.83 138.106 216.142 138.606 215.562C139.106 214.977 139.751 214.528 140.54 214.216C141.336 213.898 142.256 213.739 143.302 213.739C144.029 213.739 144.725 213.824 145.39 213.994C146.06 214.165 146.654 214.429 147.171 214.787C147.694 215.145 148.106 215.605 148.407 216.168C148.708 216.724 148.859 217.392 148.859 218.17V227H145.415V225.185H145.313C145.103 225.594 144.822 225.955 144.469 226.267C144.117 226.574 143.694 226.815 143.2 226.991C142.705 227.162 142.134 227.247 141.487 227.247ZM142.526 224.741C143.06 224.741 143.532 224.636 143.941 224.426C144.35 224.21 144.671 223.92 144.904 223.557C145.137 223.193 145.254 222.781 145.254 222.321V220.932C145.14 221.006 144.984 221.074 144.785 221.136C144.592 221.193 144.373 221.247 144.129 221.298C143.884 221.344 143.64 221.386 143.396 221.426C143.151 221.46 142.93 221.491 142.731 221.52C142.305 221.582 141.933 221.682 141.614 221.818C141.296 221.955 141.049 222.139 140.873 222.372C140.697 222.599 140.609 222.884 140.609 223.224C140.609 223.719 140.788 224.097 141.146 224.358C141.509 224.614 141.969 224.741 142.526 224.741ZM158.888 213.909V216.636H151.005V213.909H158.888ZM152.795 210.773H156.425V222.977C156.425 223.312 156.477 223.574 156.579 223.761C156.681 223.943 156.823 224.071 157.005 224.145C157.192 224.219 157.408 224.256 157.653 224.256C157.823 224.256 157.994 224.241 158.164 224.213C158.335 224.179 158.465 224.153 158.556 224.136L159.127 226.838C158.945 226.895 158.69 226.96 158.36 227.034C158.031 227.114 157.63 227.162 157.158 227.179C156.283 227.213 155.516 227.097 154.857 226.83C154.204 226.562 153.695 226.148 153.332 225.585C152.968 225.023 152.789 224.312 152.795 223.455V210.773ZM168.543 213.909V216.636H160.464V213.909H168.543ZM162.313 227V212.963C162.313 212.014 162.498 211.227 162.867 210.602C163.242 209.977 163.754 209.509 164.401 209.196C165.049 208.884 165.785 208.727 166.609 208.727C167.165 208.727 167.674 208.77 168.134 208.855C168.6 208.94 168.947 209.017 169.174 209.085L168.526 211.812C168.384 211.767 168.208 211.724 167.998 211.685C167.793 211.645 167.583 211.625 167.367 211.625C166.833 211.625 166.461 211.75 166.251 212C166.04 212.244 165.935 212.588 165.935 213.031V227H162.313ZM176.457 227.256C175.134 227.256 173.989 226.974 173.023 226.412C172.063 225.844 171.321 225.054 170.798 224.043C170.276 223.026 170.014 221.847 170.014 220.506C170.014 219.153 170.276 217.972 170.798 216.96C171.321 215.943 172.063 215.153 173.023 214.591C173.989 214.023 175.134 213.739 176.457 213.739C177.781 213.739 178.923 214.023 179.884 214.591C180.849 215.153 181.594 215.943 182.116 216.96C182.639 217.972 182.901 219.153 182.901 220.506C182.901 221.847 182.639 223.026 182.116 224.043C181.594 225.054 180.849 225.844 179.884 226.412C178.923 226.974 177.781 227.256 176.457 227.256ZM176.474 224.443C177.077 224.443 177.58 224.273 177.983 223.932C178.386 223.585 178.69 223.114 178.895 222.517C179.105 221.92 179.21 221.241 179.21 220.48C179.21 219.719 179.105 219.04 178.895 218.443C178.69 217.847 178.386 217.375 177.983 217.028C177.58 216.682 177.077 216.509 176.474 216.509C175.866 216.509 175.355 216.682 174.94 217.028C174.531 217.375 174.222 217.847 174.011 218.443C173.807 219.04 173.705 219.719 173.705 220.48C173.705 221.241 173.807 221.92 174.011 222.517C174.222 223.114 174.531 223.585 174.94 223.932C175.355 224.273 175.866 224.443 176.474 224.443ZM185.511 227V213.909H189.031V216.193H189.168C189.406 215.381 189.807 214.767 190.369 214.352C190.932 213.932 191.58 213.722 192.312 213.722C192.494 213.722 192.69 213.733 192.901 213.756C193.111 213.778 193.295 213.81 193.455 213.849V217.071C193.284 217.02 193.048 216.974 192.747 216.935C192.446 216.895 192.17 216.875 191.92 216.875C191.386 216.875 190.909 216.991 190.489 217.224C190.074 217.452 189.744 217.77 189.5 218.179C189.261 218.588 189.142 219.06 189.142 219.594V227H185.511ZM195.582 227V213.909H199.042V216.219H199.195C199.468 215.452 199.923 214.847 200.559 214.403C201.195 213.96 201.957 213.739 202.843 213.739C203.741 213.739 204.505 213.963 205.136 214.412C205.766 214.855 206.187 215.457 206.397 216.219H206.533C206.8 215.469 207.283 214.869 207.982 214.42C208.687 213.966 209.519 213.739 210.479 213.739C211.701 213.739 212.692 214.128 213.454 214.906C214.221 215.679 214.604 216.776 214.604 218.196V227H210.982V218.912C210.982 218.185 210.789 217.639 210.403 217.276C210.016 216.912 209.533 216.73 208.954 216.73C208.295 216.73 207.781 216.94 207.411 217.361C207.042 217.776 206.857 218.324 206.857 219.006V227H203.337V218.835C203.337 218.193 203.153 217.682 202.783 217.301C202.42 216.92 201.94 216.73 201.343 216.73C200.94 216.73 200.576 216.832 200.252 217.037C199.934 217.236 199.681 217.517 199.494 217.881C199.306 218.239 199.212 218.659 199.212 219.142V227H195.582Z" fill="#2D3436"/>
<defs>
<filter id="filter0_d_491_13803" x="51.4062" y="9" width="227.989" height="67.8182" filterUnits="userSpaceOnUse" color-interpolation-filters="sRGB">
<feFlood flood-opacity="0" result="BackgroundImageFix"/>
<feColorMatrix in="SourceAlpha" type="matrix" values="0 0 0 0 0 0 0 0 0 0 0 0 0 0 0 0 0 0 127 0" result="hardAlpha"/>
<feOffset dy="4"/>
<feColorMatrix type="matrix" values="0 0 0 0 1 0 0 0 0 1 0 0 0 0 1 0 0 0 1 0"/>
<feBlend mode="normal" in2="BackgroundImageFix" result="effect1_dropShadow_491_13803"/>
<feBlend mode="normal" in="SourceGraphic" in2="effect1_dropShadow_491_13803" result="shape"/>
</filter>
<filter id="filter1_d_491_13803" x="4.22162" y="88.0966" width="322.766" height="41.4148" filterUnits="userSpaceOnUse" color-interpolation-filters="sRGB">
<feFlood flood-opacity="0" result="BackgroundImageFix"/>
<feColorMatrix in="SourceAlpha" type="matrix" values="0 0 0 0 0 0 0 0 0 0 0 0 0 0 0 0 0 0 127 0" result="hardAlpha"/>
<feOffset dy="4"/>
<feColorMatrix type="matrix" values="0 0 0 0 1 0 0 0 0 1 0 0 0 0 1 0 0 0 1 0"/>
<feBlend mode="normal" in2="BackgroundImageFix" result="effect1_dropShadow_491_13803"/>
<feBlend mode="normal" in="SourceGraphic" in2="effect1_dropShadow_491_13803" result="shape"/>
</filter>
</defs>
</svg>
